<?xml version="1.0" encoding="iso-8859-1"?>
<!-- Generator: Adobe Illustrator 19.0.0, SVG Export Plug-In . SVG Version: 6.00 Build 0)  -->
<svg version="1.1" id="Layer_1" xmlns="http://www.w3.org/2000/svg" xmlns:xlink="http://www.w3.org/1999/xlink" x="0px" y="0px"
	 viewBox="0 0 476.127 476.127" style="enable-background:new 0 0 476.127 476.127;" xml:space="preserve">
<g>
	<path style="fill:#BDDBFF;" d="M88.72,192.388C38.476,200.564,0,244.263,0,296.779c0,58.318,47.445,105.763,105.763,105.763h132.3
		V73.585C165.992,73.585,104.459,123.616,88.72,192.388z M228.67,311.936l-21.213,21.213l-80.606-80.606l80.606-80.606
		l21.213,21.213l-59.394,59.394L228.67,311.936z"/>
	<path style="fill:#9BC9FF;" d="M387.407,192.388c-15.739-68.772-77.271-118.804-149.343-118.804v328.958h132.3
		c58.318,0,105.763-47.445,105.763-105.763C476.127,244.263,437.651,200.564,387.407,192.388z M268.67,333.149l-21.213-21.213
		l59.394-59.394l-59.394-59.394l21.213-21.213l80.606,80.606L268.67,333.149z"/>
	<polygon style="fill:#2488FF;" points="207.457,171.936 126.851,252.542 207.457,333.149 228.67,311.936 169.276,252.542 
		228.67,193.149 	"/>
	<polygon style="fill:#2488FF;" points="247.457,193.149 306.851,252.542 247.457,311.936 268.67,333.149 349.276,252.542 
		268.67,171.936 	"/>
</g>
<g>
</g>
<g>
</g>
<g>
</g>
<g>
</g>
<g>
</g>
<g>
</g>
<g>
</g>
<g>
</g>
<g>
</g>
<g>
</g>
<g>
</g>
<g>
</g>
<g>
</g>
<g>
</g>
<g>
</g>
</svg>
