<?xml version="1.0" encoding="utf-8"?>
<!-- Generator: Adobe Illustrator 16.0.0, SVG Export Plug-In . SVG Version: 6.00 Build 0)  -->
<!DOCTYPE svg PUBLIC "-//W3C//DTD SVG 1.1//EN" "http://www.w3.org/Graphics/SVG/1.1/DTD/svg11.dtd">
<svg version="1.1" id="Calque_1" xmlns="http://www.w3.org/2000/svg" xmlns:xlink="http://www.w3.org/1999/xlink" x="0px" y="0px"
	 width="612px" height="344.25px" viewBox="0 0 612 344.25" enable-background="new 0 0 612 344.25" xml:space="preserve">
<g>
	<path fill="#FFFFFF" d="M-31,383.5"/>
	<path fill="#FFFFFF" d="M-33.646,367.754"/>
	<path fill="#FFFFFF" d="M0,0v344.25h612V0H0z M400.445,177.129c-1.179,23.396-10.869,45.262-27.571,61.965
		s-38.537,26.393-61.965,27.572c-0.511,2.231-2.519,3.889-4.909,3.889s-4.398-1.657-4.909-3.889
		c-23.428-1.179-45.262-10.869-61.965-27.572s-26.393-38.537-27.572-61.933c-2.263-0.51-3.953-2.518-3.953-4.94
		c0-2.423,1.689-4.431,3.953-4.941c1.179-23.396,10.869-45.262,27.572-61.933c16.703-16.703,38.537-26.36,61.933-27.572
		c0.478-2.295,2.518-4.048,4.94-4.048c2.455,0,4.494,1.753,4.941,4.048c23.396,1.211,45.23,10.869,61.933,27.572
		s26.393,38.537,27.571,61.965c2.264,0.51,3.953,2.518,3.953,4.909S402.709,176.619,400.445,177.129z"/>
</g>
</svg>
