<?xml version="1.0" encoding="utf-8"?>
<!-- Generator: Adobe Illustrator 16.0.0, SVG Export Plug-In . SVG Version: 6.00 Build 0)  -->
<!DOCTYPE svg PUBLIC "-//W3C//DTD SVG 1.1//EN" "http://www.w3.org/Graphics/SVG/1.1/DTD/svg11.dtd">
<svg version="1.1" id="Calque_1" xmlns="http://www.w3.org/2000/svg" xmlns:xlink="http://www.w3.org/1999/xlink" x="0px" y="0px"
	 width="612px" height="344.25px" viewBox="0 0 612 344.25" enable-background="new 0 0 612 344.25" xml:space="preserve">
<g>
	<path opacity="0.8" fill="#FFFFFF" enable-background="new    " d="M358.85,119.181c-0.701-1.02-0.67-2.327-0.032-3.315
		c-14.375-13.483-33.021-20.91-52.816-20.91c-17.786,0-34.648,5.96-48.291,16.958c0.191,0.382,0.319,0.829,0.319,1.307
		c0,1.594-1.307,2.901-2.9,2.901c-0.606,0-1.18-0.191-1.658-0.542c-0.701,0.638-1.371,1.307-2.04,1.976
		c-14.599,14.599-22.631,33.979-22.631,54.602c0,14.566,4.017,28.527,11.507,40.609c0.383-0.191,0.829-0.319,1.307-0.319
		c1.594,0,2.9,1.307,2.9,2.899c0,0.861-0.382,1.658-0.988,2.168c2.358,3.252,5.004,6.312,7.873,9.213
		c14.599,14.599,33.979,22.631,54.602,22.631c18.551,0,36.115-6.502,50.076-18.424c-0.191-0.383-0.319-0.86-0.319-1.308
		c0-1.594,1.309-2.901,2.901-2.901c0.573,0,1.083,0.16,1.529,0.446c0.128-0.127,0.286-0.255,0.413-0.382
		c14.601-14.6,22.633-33.979,22.633-54.602c0-19.539-7.204-37.963-20.368-52.243C361.526,120.806,359.773,120.487,358.85,119.181z
		 M306,238.393c-36.561,0-66.204-29.644-66.204-66.205S269.44,105.984,306,105.984c36.56,0,66.205,29.644,66.205,66.204
		C372.205,208.75,342.561,238.393,306,238.393z"/>
	<path opacity="0.8" fill="#FFFFFF" enable-background="new    " d="M398.15,167.28c-1.18-22.791-10.613-44.083-26.902-60.339
		c-16.288-16.288-37.549-25.723-60.371-26.902c-0.574,2.167-2.55,3.761-4.877,3.761s-4.303-1.594-4.877-3.761
		c-22.822,1.179-44.083,10.614-60.371,26.902c-16.256,16.256-25.723,37.549-26.902,60.339c2.199,0.542,3.825,2.518,3.825,4.909
		c0,2.359-1.625,4.368-3.825,4.909c1.179,22.791,10.614,44.084,26.902,60.34c16.256,16.256,37.549,25.691,60.339,26.902
		c0.51-2.23,2.519-3.889,4.909-3.889s4.398,1.656,4.909,3.889c22.79-1.18,44.083-10.613,60.339-26.902
		c16.256-16.256,25.723-37.549,26.902-60.34c-2.199-0.541-3.856-2.518-3.856-4.909C394.294,169.83,395.951,167.822,398.15,167.28z
		 M361.494,227.684c-0.127,0.127-0.254,0.254-0.414,0.381c0.287,0.446,0.479,0.988,0.479,1.562c0,1.594-1.307,2.9-2.899,2.9
		c-0.67,0-1.275-0.224-1.785-0.605c-14.185,12.112-32.035,18.71-50.873,18.71c-20.974,0-40.672-8.159-55.494-22.981
		c-2.964-2.965-5.674-6.151-8.096-9.5c-0.255,0.064-0.51,0.127-0.797,0.127c-1.594,0-2.901-1.307-2.901-2.899
		c0-0.669,0.223-1.308,0.606-1.785c-7.682-12.304-11.794-26.552-11.794-41.406c0-20.974,8.16-40.672,22.982-55.494
		c0.669-0.669,1.371-1.339,2.072-2.008c-0.255-0.414-0.382-0.924-0.382-1.434c0-1.594,1.307-2.901,2.9-2.901
		c0.669,0,1.307,0.223,1.785,0.605c13.897-11.188,31.014-17.244,49.087-17.244c20.146,0,39.144,7.554,53.741,21.292
		c1.308-0.765,2.965-0.415,3.857,0.829c0.67,0.957,0.7,2.2,0.127,3.156c13.45,14.567,20.813,33.31,20.813,53.199
		C384.508,193.163,376.348,212.861,361.494,227.684z"/>
</g>
</svg>
