<?xml version="1.0" encoding="utf-8"?>
<!-- Generator: Adobe Illustrator 19.1.0, SVG Export Plug-In . SVG Version: 6.00 Build 0)  -->
<svg version="1.1" id="Calque_1" xmlns="http://www.w3.org/2000/svg" xmlns:xlink="http://www.w3.org/1999/xlink" x="0px" y="0px"
	 viewBox="8 126.1 612 344.2" style="enable-background:new 8 126.1 612 344.2;" xml:space="preserve">
<style type="text/css">
	.st0{fill:#FFFFFF;}
	.st1{fill:#272727;}
</style>
<g>
	<path class="st0" d="M-15,635.6"/>
	<path class="st0" d="M-17.6,619.9"/>
	<path class="st1" d="M8,126.1v344.2h612V126.1H8z M408.4,303.3c-1.2,23.4-10.9,45.3-27.6,62s-38.5,26.4-62,27.6
		c-0.5,2.2-2.5,3.9-4.9,3.9s-4.4-1.7-4.9-3.9c-23.4-1.2-45.3-10.9-62-27.6s-26.4-38.5-27.6-61.9c-2.3-0.5-4-2.5-4-4.9s1.7-4.4,4-4.9
		c1.2-23.4,10.9-45.3,27.6-61.9c16.7-16.7,38.5-26.4,61.9-27.6c0.5-2.3,2.5-4,4.9-4c2.5,0,4.5,1.8,4.9,4
		c23.4,1.2,45.2,10.9,61.9,27.6s26.4,38.5,27.6,62c2.3,0.5,4,2.5,4,4.9S410.7,302.7,408.4,303.3z"/>
</g>
</svg>
