<?xml version="1.0" encoding="utf-8"?>
<!-- Generator: Adobe Illustrator 19.1.0, SVG Export Plug-In . SVG Version: 6.00 Build 0)  -->
<svg version="1.1" id="Calque_1" xmlns="http://www.w3.org/2000/svg" xmlns:xlink="http://www.w3.org/1999/xlink" x="0px" y="0px"
	 viewBox="8 126 612 344.2" style="enable-background:new 8 126 612 344.2;" xml:space="preserve">
<style type="text/css">
	.st0{opacity:0.8;fill:#FFFFFF;enable-background:new    ;}
</style>
<g>
	<path class="st0" d="M366.9,245.2c-0.7-1-0.7-2.3,0-3.3c-14.4-13.5-33-20.9-52.8-20.9c-17.8,0-34.6,6-48.3,17
		c0.2,0.4,0.3,0.8,0.3,1.3c0,1.6-1.3,2.9-2.9,2.9c-0.6,0-1.2-0.2-1.7-0.5c-0.7,0.6-1.4,1.3-2,2c-14.6,14.6-22.6,34-22.6,54.6
		c0,14.6,4,28.5,11.5,40.6c0.4-0.2,0.8-0.3,1.3-0.3c1.6,0,2.9,1.3,2.9,2.9c0,0.9-0.4,1.7-1,2.2c2.4,3.3,5,6.3,7.9,9.2
		c14.6,14.6,34,22.6,54.6,22.6c18.6,0,36.1-6.5,50.1-18.4c-0.2-0.4-0.3-0.9-0.3-1.3c0-1.6,1.3-2.9,2.9-2.9c0.6,0,1.1,0.2,1.5,0.4
		c0.1-0.1,0.3-0.3,0.4-0.4c14.6-14.6,22.6-34,22.6-54.6c0-19.5-7.2-38-20.4-52.2C369.5,246.8,367.8,246.5,366.9,245.2z M314,364.4
		c-36.6,0-66.2-29.6-66.2-66.2S277.4,232,314,232s66.2,29.6,66.2,66.2C380.2,334.8,350.6,364.4,314,364.4z"/>
	<path class="st0" d="M406.1,293.3c-1.2-22.8-10.6-44.1-26.9-60.3c-16.3-16.3-37.5-25.7-60.4-26.9c-0.6,2.2-2.5,3.8-4.9,3.8
		s-4.3-1.6-4.9-3.8c-22.8,1.2-44.1,10.6-60.4,26.9c-16.3,16.3-25.7,37.5-26.9,60.3c2.2,0.5,3.8,2.5,3.8,4.9c0,2.4-1.6,4.4-3.8,4.9
		c1.2,22.8,10.6,44.1,26.9,60.3c16.3,16.3,37.5,25.7,60.3,26.9c0.5-2.2,2.5-3.9,4.9-3.9s4.4,1.7,4.9,3.9
		c22.8-1.2,44.1-10.6,60.3-26.9c16.3-16.3,25.7-37.5,26.9-60.3c-2.2-0.5-3.9-2.5-3.9-4.9C402.3,295.9,404,293.9,406.1,293.3z
		 M369.5,353.7c-0.1,0.1-0.3,0.3-0.4,0.4c0.3,0.4,0.5,1,0.5,1.6c0,1.6-1.3,2.9-2.9,2.9c-0.7,0-1.3-0.2-1.8-0.6
		c-14.2,12.1-32,18.7-50.9,18.7c-21,0-40.7-8.2-55.5-23c-3-3-5.7-6.2-8.1-9.5c-0.3,0.1-0.5,0.1-0.8,0.1c-1.6,0-2.9-1.3-2.9-2.9
		c0-0.7,0.2-1.3,0.6-1.8c-7.7-12.3-11.8-26.6-11.8-41.4c0-21,8.2-40.7,23-55.5c0.7-0.7,1.4-1.3,2.1-2c-0.3-0.4-0.4-0.9-0.4-1.4
		c0-1.6,1.3-2.9,2.9-2.9c0.7,0,1.3,0.2,1.8,0.6c13.9-11.2,31-17.2,49.1-17.2c20.1,0,39.1,7.6,53.7,21.3c1.3-0.8,3-0.4,3.9,0.8
		c0.7,1,0.7,2.2,0.1,3.2c13.5,14.6,20.8,33.3,20.8,53.2C392.5,319.2,384.3,338.9,369.5,353.7z"/>
</g>
</svg>
